<svg xmlns="http://www.w3.org/2000/svg" xmlns:xlink="http://www.w3.org/1999/xlink" version="1.1" x="0px" y="0px" viewBox="0 0 100 125" style="enable-background:new 0 0 100 100;" xml:space="preserve"><path d="M88.7,59.1L74,53.6v-4.8c5.7-1,10-5.9,10-11.8s-4.3-10.9-10-11.8V7c0-1.1-0.9-2-2-2H24c-1.1,0-2,0.9-2,2v84H12  c-1.1,0-2,0.9-2,2s0.9,2,2,2h24c1.1,0,2-0.9,2-2s-0.9-2-2-2H26V27.8L44.8,9H70v16.2c-5.7,1-10,5.9-10,11.8s4.3,10.9,10,11.8v4.8  l-14.7,5.5c-1,0.4-1.6,1.5-1.2,2.6c0.3,0.8,1.1,1.3,1.9,1.3c0.2,0,0.5,0,0.7-0.1l13.3-5v16.4l-9.5,11.4c-0.7,0.8-0.6,2.1,0.3,2.8  c0.4,0.3,0.8,0.5,1.3,0.5c0.6,0,1.1-0.2,1.5-0.7L72,78.1l8.5,10.2c0.4,0.5,1,0.7,1.5,0.7c0.5,0,0.9-0.2,1.3-0.5c0.8-0.7,1-2,0.3-2.8  L74,74.3V57.9l13.3,5C87.5,63,87.8,63,88,63c0.8,0,1.6-0.5,1.9-1.3C90.3,60.7,89.7,59.5,88.7,59.1z M26,22.2V9h13.2L26,22.2z M64,37  c0-4.4,3.6-8,8-8s8,3.6,8,8s-3.6,8-8,8S64,41.4,64,37z"/><text x="0" y="115" fill="#000000" font-size="5px" font-weight="bold" font-family="'Helvetica Neue', Helvetica, Arial-Unicode, Arial, Sans-serif">Created by IconMark</text><text x="0" y="120" fill="#000000" font-size="5px" font-weight="bold" font-family="'Helvetica Neue', Helvetica, Arial-Unicode, Arial, Sans-serif">from the Noun Project</text></svg>